<svg width="537" height="141" viewBox="0 0 537 141" fill="none" xmlns="http://www.w3.org/2000/svg">
<path fill-rule="evenodd" clip-rule="evenodd" d="M23.3949 38.9748L32.3929 0H112.393C134.484 0 148.364 17.4496 143.395 38.9748L140.695 50.6672C135.726 72.1924 113.789 89.642 91.6974 89.642H51.6974L40 140.309H-5.96046e-06L20.6955 50.6672H100.695L103.395 38.9748H23.3949ZM416.393 0H536.393C531.423 21.5252 509.486 38.9748 487.395 38.9748H471.395L448 140.309H408L431.395 38.9748H407.395H327.395L324.695 50.6672H364.695C386.787 50.6672 400.667 68.1169 395.697 89.642L392.998 101.334C388.029 122.86 366.091 140.309 344 140.309H264L272.998 101.334H352.998L355.697 89.642H315.697C293.606 89.642 279.726 72.1924 284.695 50.6672L287.395 38.9748C292.364 17.4496 314.302 0 336.393 0H416.393ZM284.393 0H164.393L155.395 38.9748H275.395L284.393 0ZM248.695 50.6672H152.695L143.697 89.642H239.697L248.695 50.6672ZM260.998 101.334H140.998L132 140.309H252L260.998 101.334Z" fill="url(#paint0_linear_105_3873)"/>
<defs>
<linearGradient id="paint0_linear_105_3873" x1="-24.8335" y1="47.9011" x2="190.413" y2="304.767" gradientUnits="userSpaceOnUse">
<stop stop-color="#02FF92"/>
<stop offset="0.25" stop-color="#4ED4FF"/>
<stop offset="0.5" stop-color="#B968FF"/>
<stop offset="0.75" stop-color="#FB4DFF"/>
<stop offset="1" stop-color="#FF4DCD"/>
</linearGradient>
</defs>
</svg>
