<svg width="537" height="141" viewBox="0 0 537 141" fill="none" xmlns="http://www.w3.org/2000/svg">
<path fill-rule="evenodd" clip-rule="evenodd" d="M24.002 38.9748L33 0H113C135.091 0 148.971 17.4496 144.002 38.9748L141.303 50.6672C136.333 72.1924 114.396 89.642 92.3045 89.642H52.3045L40.607 140.309H0.60705L21.3025 50.6672H101.303L104.002 38.9748H24.002ZM417 0H537C532.031 21.5252 510.093 38.9748 488.002 38.9748H472.002L448.607 140.309H408.607L432.002 38.9748H408.002H328.002L325.303 50.6672H365.303C387.394 50.6672 401.274 68.1169 396.305 89.642L393.605 101.334C388.636 122.86 366.698 140.309 344.607 140.309H264.607L273.605 101.334H353.605L356.305 89.642H316.305C294.213 89.642 280.333 72.1924 285.303 50.6672L288.002 38.9748C292.971 17.4496 314.909 0 337 0H417ZM285 0H165L156.002 38.9748H276.002L285 0ZM249.303 50.6672H153.303L144.305 89.642H240.305L249.303 50.6672ZM261.605 101.334H141.605L132.607 140.309H252.607L261.605 101.334Z" fill="white"/>
</svg>
