<svg width="537" height="141" viewBox="0 0 537 141" fill="none" xmlns="http://www.w3.org/2000/svg">
<mask id="path-1-inside-1_105_3868" fill="white">
<path fill-rule="evenodd" clip-rule="evenodd" d="M23.3949 38.9748L32.3929 0H112.393C134.484 0 148.364 17.4496 143.395 38.9748L140.695 50.6672C135.726 72.1924 113.789 89.642 91.6974 89.642H51.6974L40 140.309H-5.96046e-06L20.6955 50.6672H100.695L103.395 38.9748H23.3949ZM416.393 0H536.393C531.423 21.5252 509.486 38.9748 487.395 38.9748H471.395L448 140.309H408L431.395 38.9748H407.395H327.395L324.695 50.6672H364.695C386.787 50.6672 400.667 68.1169 395.697 89.642L392.998 101.334C388.029 122.86 366.091 140.309 344 140.309H264L272.998 101.334H352.998L355.697 89.642H315.697C293.606 89.642 279.726 72.1924 284.695 50.6672L287.395 38.9748C292.364 17.4496 314.302 0 336.393 0H416.393ZM284.393 0H164.393L155.395 38.9748H275.395L284.393 0ZM248.695 50.6672H152.695L143.697 89.642H239.697L248.695 50.6672ZM260.998 101.334H140.998L132 140.309H252L260.998 101.334Z"/>
</mask>
<path fill-rule="evenodd" clip-rule="evenodd" d="M23.3949 38.9748L32.3929 0H112.393C134.484 0 148.364 17.4496 143.395 38.9748L140.695 50.6672C135.726 72.1924 113.789 89.642 91.6974 89.642H51.6974L40 140.309H-5.96046e-06L20.6955 50.6672H100.695L103.395 38.9748H23.3949ZM416.393 0H536.393C531.423 21.5252 509.486 38.9748 487.395 38.9748H471.395L448 140.309H408L431.395 38.9748H407.395H327.395L324.695 50.6672H364.695C386.787 50.6672 400.667 68.1169 395.697 89.642L392.998 101.334C388.029 122.86 366.091 140.309 344 140.309H264L272.998 101.334H352.998L355.697 89.642H315.697C293.606 89.642 279.726 72.1924 284.695 50.6672L287.395 38.9748C292.364 17.4496 314.302 0 336.393 0H416.393ZM284.393 0H164.393L155.395 38.9748H275.395L284.393 0ZM248.695 50.6672H152.695L143.697 89.642H239.697L248.695 50.6672ZM260.998 101.334H140.998L132 140.309H252L260.998 101.334Z" fill="url(#paint0_linear_105_3868)"/>
<path d="M32.3929 0L33.0678 -2.92311H30.0678L29.3929 0H32.3929ZM23.3949 38.9748H20.3949L19.72 41.8979H22.72L23.3949 38.9748ZM51.6974 89.642L52.3723 86.7189H49.3723L48.6974 89.642H51.6974ZM40 140.309L39.3251 143.232H42.3251L43 140.309H40ZM-5.96046e-06 140.309H-3.00001L-3.67486 143.232H-0.674859L-5.96046e-06 140.309ZM20.6955 50.6672L21.3703 47.7441H18.3703L17.6955 50.6672H20.6955ZM100.695 50.6672L100.021 53.5904H103.021L103.695 50.6672H100.695ZM103.395 38.9748H106.395L107.07 36.0517H104.07L103.395 38.9748ZM536.393 0H539.393L540.068 -2.92311H537.068L536.393 0ZM471.395 38.9748L472.07 36.0517H469.07L468.395 38.9748H471.395ZM448 140.309L447.325 143.232H450.325L451 140.309H448ZM408 140.309H405L404.325 143.232H407.325L408 140.309ZM431.395 38.9748H434.395L435.07 36.0517H432.07L431.395 38.9748ZM327.395 38.9748L328.07 36.0517H325.07L324.395 38.9748H327.395ZM324.695 50.6672H321.695L321.021 53.5904H324.021L324.695 50.6672ZM264 140.309H261L260.325 143.232H263.325L264 140.309ZM272.998 101.334L273.673 98.4114H270.673L269.998 101.334H272.998ZM352.998 101.334L352.323 104.258H355.323L355.998 101.334H352.998ZM355.697 89.642H358.697L359.372 86.7189H356.372L355.697 89.642ZM164.393 0L165.068 -2.92311H162.068L161.393 0H164.393ZM284.393 0H287.393L288.068 -2.92311H285.068L284.393 0ZM155.395 38.9748H152.395L151.72 41.8979H154.72L155.395 38.9748ZM275.395 38.9748L274.72 41.8979H277.72L278.395 38.9748H275.395ZM152.695 50.6672L153.37 47.7441H150.37L149.695 50.6672H152.695ZM248.695 50.6672H251.695L252.37 47.7441H249.37L248.695 50.6672ZM143.697 89.642H140.697L140.023 92.5652H143.023L143.697 89.642ZM239.697 89.642L239.023 92.5652H242.023L242.697 89.642H239.697ZM140.998 101.334L141.673 98.4114H138.673L137.998 101.334H140.998ZM260.998 101.334H263.998L264.673 98.4114H261.673L260.998 101.334ZM132 140.309H129L128.325 143.232H131.325L132 140.309ZM252 140.309L251.325 143.232H254.325L255 140.309H252ZM29.3929 0L20.3949 38.9748H26.3949L35.3929 0H29.3929ZM113.068 -2.92311H33.0678L31.7181 2.92311H111.718L113.068 -2.92311ZM146.395 38.9748C151.737 15.8352 136.816 -2.92311 113.068 -2.92311L111.718 2.92311C132.153 2.92311 144.992 19.064 140.395 38.9748H146.395ZM143.695 50.6672L146.395 38.9748H140.395L137.695 50.6672H143.695ZM91.0226 92.5652C114.771 92.5652 138.353 73.8068 143.695 50.6672H137.695C133.099 70.578 112.807 86.7189 92.3723 86.7189L91.0226 92.5652ZM51.0226 92.5652H91.0226L92.3723 86.7189H52.3723L51.0226 92.5652ZM43 140.309L54.6974 89.642H48.6974L37 140.309H43ZM-0.674859 143.232H39.3251L40.6748 137.386H0.674847L-0.674859 143.232ZM17.6955 50.6672L-3.00001 140.309H2.99999L23.6955 50.6672H17.6955ZM101.37 47.7441H21.3703L20.0206 53.5904H100.021L101.37 47.7441ZM100.395 38.9748L97.6955 50.6672H103.695L106.395 38.9748H100.395ZM22.72 41.8979H102.72L104.07 36.0517H24.0698L22.72 41.8979ZM537.068 -2.92311H417.068L415.718 2.92311H535.718L537.068 -2.92311ZM486.72 41.8979C510.468 41.8979 534.051 23.1396 539.393 0H533.393C528.796 19.9108 508.504 36.0517 488.07 36.0517L486.72 41.8979ZM470.72 41.8979H486.72L488.07 36.0517H472.07L470.72 41.8979ZM451 140.309L474.395 38.9748H468.395L445 140.309H451ZM407.325 143.232H447.325L448.675 137.386H408.675L407.325 143.232ZM428.395 38.9748L405 140.309H411L434.395 38.9748H428.395ZM406.72 41.8979H430.72L432.07 36.0517H408.07L406.72 41.8979ZM408.07 36.0517H328.07L326.72 41.8979H406.72L408.07 36.0517ZM324.395 38.9748L321.695 50.6672H327.695L330.395 38.9748H324.395ZM324.021 53.5904H364.021L365.37 47.7441H325.37L324.021 53.5904ZM364.021 53.5904C384.455 53.5904 397.294 69.7313 392.697 89.642H398.697C404.04 66.5025 389.119 47.7441 365.37 47.7441L364.021 53.5904ZM392.697 89.642L389.998 101.334H395.998L398.697 89.642H392.697ZM389.998 101.334C385.401 121.245 365.109 137.386 344.675 137.386L343.325 143.232C367.073 143.232 390.656 124.474 395.998 101.334H389.998ZM344.675 137.386H264.675L263.325 143.232H343.325L344.675 137.386ZM267 140.309L275.998 101.334H269.998L261 140.309H267ZM272.323 104.258H352.323L353.673 98.4114H273.673L272.323 104.258ZM355.998 101.334L358.697 89.642H352.697L349.998 101.334H355.998ZM356.372 86.7189H316.372L315.023 92.5652H355.023L356.372 86.7189ZM316.372 86.7189C295.938 86.7189 283.099 70.578 287.695 50.6672H281.695C276.353 73.8068 291.274 92.5652 315.023 92.5652L316.372 86.7189ZM287.695 50.6672L290.395 38.9748H284.395L281.695 50.6672H287.695ZM290.395 38.9748C294.992 19.064 315.284 2.92311 335.718 2.92311L337.068 -2.92311C313.32 -2.92311 289.737 15.8352 284.395 38.9748H290.395ZM335.718 2.92311H415.718L417.068 -2.92311H337.068L335.718 2.92311ZM163.718 2.92311H283.718L285.068 -2.92311H165.068L163.718 2.92311ZM158.395 38.9748L167.393 0H161.393L152.395 38.9748H158.395ZM276.07 36.0517H156.07L154.72 41.8979H274.72L276.07 36.0517ZM281.393 0L272.395 38.9748H278.395L287.393 0H281.393ZM152.021 53.5904H248.021L249.37 47.7441H153.37L152.021 53.5904ZM146.697 89.642L155.695 50.6672H149.695L140.697 89.642H146.697ZM240.372 86.7189H144.372L143.023 92.5652H239.023L240.372 86.7189ZM245.695 50.6672L236.697 89.642H242.697L251.695 50.6672H245.695ZM140.323 104.258H260.323L261.673 98.4114H141.673L140.323 104.258ZM135 140.309L143.998 101.334H137.998L129 140.309H135ZM252.675 137.386H132.675L131.325 143.232H251.325L252.675 137.386ZM257.998 101.334L249 140.309H255L263.998 101.334H257.998Z" fill="url(#paint1_linear_105_3868)" fill-opacity="0.6" style="mix-blend-mode:soft-light" mask="url(#path-1-inside-1_105_3868)"/>
<defs>
<linearGradient id="paint0_linear_105_3868" x1="-24.8335" y1="47.9011" x2="190.413" y2="304.767" gradientUnits="userSpaceOnUse">
<stop stop-color="#02FF92"/>
<stop offset="0.25" stop-color="#4ED4FF"/>
<stop offset="0.5" stop-color="#B968FF"/>
<stop offset="0.75" stop-color="#FB4DFF"/>
<stop offset="1" stop-color="#FF4DCD"/>
</linearGradient>
<linearGradient id="paint1_linear_105_3868" x1="268.583" y1="-1.84536" x2="236.27" y2="134.69" gradientUnits="userSpaceOnUse">
<stop stop-color="white"/>
<stop offset="1"/>
</linearGradient>
</defs>
</svg>
