<svg width="537" height="141" viewBox="0 0 537 141" fill="none" xmlns="http://www.w3.org/2000/svg">
<mask id="path-1-inside-1_105_3893" fill="white">
<path fill-rule="evenodd" clip-rule="evenodd" d="M23.3949 38.9748L32.3929 0H112.393C134.484 0 148.364 17.4496 143.395 38.9748L140.695 50.6672C135.726 72.1924 113.789 89.642 91.6974 89.642H51.6974L40 140.309H-5.96046e-06L20.6955 50.6672H100.695L103.395 38.9748H23.3949ZM416.393 0H536.393C531.423 21.5252 509.486 38.9748 487.395 38.9748H471.395L448 140.309H408L431.395 38.9748H407.395H327.395L324.695 50.6672H364.695C386.787 50.6672 400.667 68.1169 395.697 89.642L392.998 101.334C388.029 122.86 366.091 140.309 344 140.309H264L272.998 101.334H352.998L355.697 89.642H315.697C293.606 89.642 279.726 72.1924 284.695 50.6672L287.395 38.9748C292.364 17.4496 314.302 0 336.393 0H416.393ZM284.393 0H164.393L155.395 38.9748H275.395L284.393 0ZM248.695 50.6672H152.695L143.697 89.642H239.697L248.695 50.6672ZM260.998 101.334H140.998L132 140.309H252L260.998 101.334Z"/>
</mask>
<g filter="url(#filter0_i_105_3893)">
<path fill-rule="evenodd" clip-rule="evenodd" d="M23.3949 38.9748L32.3929 0H112.393C134.484 0 148.364 17.4496 143.395 38.9748L140.695 50.6672C135.726 72.1924 113.789 89.642 91.6974 89.642H51.6974L40 140.309H-5.96046e-06L20.6955 50.6672H100.695L103.395 38.9748H23.3949ZM416.393 0H536.393C531.423 21.5252 509.486 38.9748 487.395 38.9748H471.395L448 140.309H408L431.395 38.9748H407.395H327.395L324.695 50.6672H364.695C386.787 50.6672 400.667 68.1169 395.697 89.642L392.998 101.334C388.029 122.86 366.091 140.309 344 140.309H264L272.998 101.334H352.998L355.697 89.642H315.697C293.606 89.642 279.726 72.1924 284.695 50.6672L287.395 38.9748C292.364 17.4496 314.302 0 336.393 0H416.393ZM284.393 0H164.393L155.395 38.9748H275.395L284.393 0ZM248.695 50.6672H152.695L143.697 89.642H239.697L248.695 50.6672ZM260.998 101.334H140.998L132 140.309H252L260.998 101.334Z" fill="url(#paint0_linear_105_3893)"/>
</g>
<path d="M32.3929 0L33.0678 -2.92311H30.0678L29.3929 0H32.3929ZM23.3949 38.9748H20.3949L19.72 41.8979H22.72L23.3949 38.9748ZM51.6974 89.642L52.3723 86.7189H49.3723L48.6974 89.642H51.6974ZM40 140.309L39.3251 143.232H42.3251L43 140.309H40ZM-5.96046e-06 140.309H-3.00001L-3.67486 143.232H-0.674859L-5.96046e-06 140.309ZM20.6955 50.6672L21.3703 47.7441H18.3703L17.6955 50.6672H20.6955ZM100.695 50.6672L100.021 53.5904H103.021L103.695 50.6672H100.695ZM103.395 38.9748H106.395L107.07 36.0517H104.07L103.395 38.9748ZM536.393 0H539.393L540.068 -2.92311H537.068L536.393 0ZM471.395 38.9748L472.07 36.0517H469.07L468.395 38.9748H471.395ZM448 140.309L447.325 143.232H450.325L451 140.309H448ZM408 140.309H405L404.325 143.232H407.325L408 140.309ZM431.395 38.9748H434.395L435.07 36.0517H432.07L431.395 38.9748ZM327.395 38.9748L328.07 36.0517H325.07L324.395 38.9748H327.395ZM324.695 50.6672H321.695L321.021 53.5904H324.021L324.695 50.6672ZM264 140.309H261L260.325 143.232H263.325L264 140.309ZM272.998 101.334L273.673 98.4114H270.673L269.998 101.334H272.998ZM352.998 101.334L352.323 104.258H355.323L355.998 101.334H352.998ZM355.697 89.642H358.697L359.372 86.7189H356.372L355.697 89.642ZM164.393 0L165.068 -2.92311H162.068L161.393 0H164.393ZM284.393 0H287.393L288.068 -2.92311H285.068L284.393 0ZM155.395 38.9748H152.395L151.72 41.8979H154.72L155.395 38.9748ZM275.395 38.9748L274.72 41.8979H277.72L278.395 38.9748H275.395ZM152.695 50.6672L153.37 47.7441H150.37L149.695 50.6672H152.695ZM248.695 50.6672H251.695L252.37 47.7441H249.37L248.695 50.6672ZM143.697 89.642H140.697L140.023 92.5652H143.023L143.697 89.642ZM239.697 89.642L239.023 92.5652H242.023L242.697 89.642H239.697ZM140.998 101.334L141.673 98.4114H138.673L137.998 101.334H140.998ZM260.998 101.334H263.998L264.673 98.4114H261.673L260.998 101.334ZM132 140.309H129L128.325 143.232H131.325L132 140.309ZM252 140.309L251.325 143.232H254.325L255 140.309H252ZM29.3929 0L20.3949 38.9748H26.3949L35.3929 0H29.3929ZM113.068 -2.92311H33.0678L31.7181 2.92311H111.718L113.068 -2.92311ZM146.395 38.9748C151.737 15.8352 136.816 -2.92311 113.068 -2.92311L111.718 2.92311C132.153 2.92311 144.992 19.064 140.395 38.9748H146.395ZM143.695 50.6672L146.395 38.9748H140.395L137.695 50.6672H143.695ZM91.0226 92.5652C114.771 92.5652 138.353 73.8068 143.695 50.6672H137.695C133.099 70.578 112.807 86.7189 92.3723 86.7189L91.0226 92.5652ZM51.0226 92.5652H91.0226L92.3723 86.7189H52.3723L51.0226 92.5652ZM43 140.309L54.6974 89.642H48.6974L37 140.309H43ZM-0.674859 143.232H39.3251L40.6748 137.386H0.674847L-0.674859 143.232ZM17.6955 50.6672L-3.00001 140.309H2.99999L23.6955 50.6672H17.6955ZM101.37 47.7441H21.3703L20.0206 53.5904H100.021L101.37 47.7441ZM100.395 38.9748L97.6955 50.6672H103.695L106.395 38.9748H100.395ZM22.72 41.8979H102.72L104.07 36.0517H24.0698L22.72 41.8979ZM537.068 -2.92311H417.068L415.718 2.92311H535.718L537.068 -2.92311ZM486.72 41.8979C510.468 41.8979 534.051 23.1396 539.393 0H533.393C528.796 19.9108 508.504 36.0517 488.07 36.0517L486.72 41.8979ZM470.72 41.8979H486.72L488.07 36.0517H472.07L470.72 41.8979ZM451 140.309L474.395 38.9748H468.395L445 140.309H451ZM407.325 143.232H447.325L448.675 137.386H408.675L407.325 143.232ZM428.395 38.9748L405 140.309H411L434.395 38.9748H428.395ZM406.72 41.8979H430.72L432.07 36.0517H408.07L406.72 41.8979ZM408.07 36.0517H328.07L326.72 41.8979H406.72L408.07 36.0517ZM324.395 38.9748L321.695 50.6672H327.695L330.395 38.9748H324.395ZM324.021 53.5904H364.021L365.37 47.7441H325.37L324.021 53.5904ZM364.021 53.5904C384.455 53.5904 397.294 69.7313 392.697 89.642H398.697C404.04 66.5025 389.119 47.7441 365.37 47.7441L364.021 53.5904ZM392.697 89.642L389.998 101.334H395.998L398.697 89.642H392.697ZM389.998 101.334C385.401 121.245 365.109 137.386 344.675 137.386L343.325 143.232C367.073 143.232 390.656 124.474 395.998 101.334H389.998ZM344.675 137.386H264.675L263.325 143.232H343.325L344.675 137.386ZM267 140.309L275.998 101.334H269.998L261 140.309H267ZM272.323 104.258H352.323L353.673 98.4114H273.673L272.323 104.258ZM355.998 101.334L358.697 89.642H352.697L349.998 101.334H355.998ZM356.372 86.7189H316.372L315.023 92.5652H355.023L356.372 86.7189ZM316.372 86.7189C295.938 86.7189 283.099 70.578 287.695 50.6672H281.695C276.353 73.8068 291.274 92.5652 315.023 92.5652L316.372 86.7189ZM287.695 50.6672L290.395 38.9748H284.395L281.695 50.6672H287.695ZM290.395 38.9748C294.992 19.064 315.284 2.92311 335.718 2.92311L337.068 -2.92311C313.32 -2.92311 289.737 15.8352 284.395 38.9748H290.395ZM335.718 2.92311H415.718L417.068 -2.92311H337.068L335.718 2.92311ZM163.718 2.92311H283.718L285.068 -2.92311H165.068L163.718 2.92311ZM158.395 38.9748L167.393 0H161.393L152.395 38.9748H158.395ZM276.07 36.0517H156.07L154.72 41.8979H274.72L276.07 36.0517ZM281.393 0L272.395 38.9748H278.395L287.393 0H281.393ZM152.021 53.5904H248.021L249.37 47.7441H153.37L152.021 53.5904ZM146.697 89.642L155.695 50.6672H149.695L140.697 89.642H146.697ZM240.372 86.7189H144.372L143.023 92.5652H239.023L240.372 86.7189ZM245.695 50.6672L236.697 89.642H242.697L251.695 50.6672H245.695ZM140.323 104.258H260.323L261.673 98.4114H141.673L140.323 104.258ZM135 140.309L143.998 101.334H137.998L129 140.309H135ZM252.675 137.386H132.675L131.325 143.232H251.325L252.675 137.386ZM257.998 101.334L249 140.309H255L263.998 101.334H257.998Z" fill="url(#paint1_linear_105_3893)" fill-opacity="0.6" style="mix-blend-mode:soft-light" mask="url(#path-1-inside-1_105_3893)"/>
<g filter="url(#filter1_i_105_3893)">
<mask id="path-3-inside-2_105_3893" fill="white">
<path fill-rule="evenodd" clip-rule="evenodd" d="M23.3949 38.9748L32.3929 0H112.393C134.484 0 148.364 17.4496 143.395 38.9748L140.695 50.6672C135.726 72.1924 113.789 89.642 91.6974 89.642H51.6974L40 140.309H-5.96046e-06L20.6955 50.6672H100.695L103.395 38.9748H23.3949ZM416.393 0H536.393C531.423 21.5252 509.486 38.9748 487.395 38.9748H471.395L448 140.309H408L431.395 38.9748H407.395H327.395L324.695 50.6672H364.695C386.787 50.6672 400.667 68.1169 395.697 89.642L392.998 101.334C388.029 122.86 366.091 140.309 344 140.309H264L272.998 101.334H352.998L355.697 89.642H315.697C293.606 89.642 279.726 72.1924 284.695 50.6672L287.395 38.9748C292.364 17.4496 314.302 0 336.393 0H416.393ZM284.393 0H164.393L155.395 38.9748H275.395L284.393 0ZM248.695 50.6672H152.695L143.697 89.642H239.697L248.695 50.6672ZM260.998 101.334H140.998L132 140.309H252L260.998 101.334Z"/>
</mask>
<path d="M32.3929 0L32.6179 -0.97437H31.6179L31.3929 0H32.3929ZM23.3949 38.9748H22.3949L22.17 39.9492H23.17L23.3949 38.9748ZM51.6974 89.642L51.9224 88.6677H50.9224L50.6974 89.642H51.6974ZM40 140.309L39.775 141.284H40.775L41 140.309H40ZM-5.96046e-06 140.309H-1.00001L-1.22496 141.284H-0.224957L-5.96046e-06 140.309ZM20.6955 50.6672L20.9204 49.6929H19.9204L19.6955 50.6672H20.6955ZM100.695 50.6672L100.471 51.6416H101.471L101.695 50.6672H100.695ZM103.395 38.9748H104.395L104.62 38.0004H103.62L103.395 38.9748ZM536.393 0H537.393L537.618 -0.97437H536.618L536.393 0ZM471.395 38.9748L471.62 38.0004H470.62L470.395 38.9748H471.395ZM448 140.309L447.775 141.284H448.775L449 140.309H448ZM408 140.309H407L406.775 141.284H407.775L408 140.309ZM431.395 38.9748H432.395L432.62 38.0004H431.62L431.395 38.9748ZM327.395 38.9748L327.62 38.0004H326.62L326.395 38.9748H327.395ZM324.695 50.6672H323.695L323.471 51.6416H324.471L324.695 50.6672ZM264 140.309H263L262.775 141.284H263.775L264 140.309ZM272.998 101.334L273.223 100.36H272.223L271.998 101.334H272.998ZM352.998 101.334L352.773 102.309H353.773L353.998 101.334H352.998ZM355.697 89.642H356.697L356.922 88.6677H355.922L355.697 89.642ZM164.393 0L164.618 -0.97437H163.618L163.393 0H164.393ZM284.393 0H285.393L285.618 -0.97437H284.618L284.393 0ZM155.395 38.9748H154.395L154.17 39.9492H155.17L155.395 38.9748ZM275.395 38.9748L275.17 39.9492H276.17L276.395 38.9748H275.395ZM152.695 50.6672L152.92 49.6929H151.92L151.695 50.6672H152.695ZM248.695 50.6672H249.695L249.92 49.6929H248.92L248.695 50.6672ZM143.697 89.642H142.697L142.472 90.6164H143.472L143.697 89.642ZM239.697 89.642L239.472 90.6164H240.472L240.697 89.642H239.697ZM140.998 101.334L141.223 100.36H140.223L139.998 101.334H140.998ZM260.998 101.334H261.998L262.223 100.36H261.223L260.998 101.334ZM132 140.309H131L130.775 141.284H131.775L132 140.309ZM252 140.309L251.775 141.284H252.775L253 140.309H252ZM31.3929 0L22.3949 38.9748H24.3949L33.3929 0H31.3929ZM112.618 -0.97437H32.6179L32.168 0.97437H112.168L112.618 -0.97437ZM144.395 38.9748C149.489 16.9115 135.262 -0.97437 112.618 -0.97437L112.168 0.97437C133.707 0.97437 147.24 17.9877 142.395 38.9748H144.395ZM141.695 50.6672L144.395 38.9748H142.395L139.695 50.6672H141.695ZM91.4725 90.6164C114.116 90.6164 136.602 72.7306 141.695 50.6672H139.695C134.85 71.6543 113.462 88.6677 91.9224 88.6677L91.4725 90.6164ZM51.4725 90.6164H91.4725L91.9224 88.6677H51.9224L51.4725 90.6164ZM41 140.309L52.6974 89.642H50.6974L39 140.309H41ZM-0.224957 141.284H39.775L40.2249 139.335H0.224945L-0.224957 141.284ZM19.6955 50.6672L-1.00001 140.309H0.999994L21.6955 50.6672H19.6955ZM100.92 49.6929H20.9204L20.4705 51.6416H100.471L100.92 49.6929ZM102.395 38.9748L99.6955 50.6672H101.695L104.395 38.9748H102.395ZM23.17 39.9492H103.17L103.62 38.0004H23.6199L23.17 39.9492ZM536.618 -0.97437H416.618L416.168 0.97437H536.168L536.618 -0.97437ZM487.17 39.9492C509.814 39.9492 532.299 22.0633 537.393 0H535.393C530.548 20.9871 509.159 38.0004 487.62 38.0004L487.17 39.9492ZM471.17 39.9492H487.17L487.62 38.0004H471.62L471.17 39.9492ZM449 140.309L472.395 38.9748H470.395L447 140.309H449ZM407.775 141.284H447.775L448.225 139.335H408.225L407.775 141.284ZM430.395 38.9748L407 140.309H409L432.395 38.9748H430.395ZM407.17 39.9492H431.17L431.62 38.0004H407.62L407.17 39.9492ZM407.62 38.0004H327.62L327.17 39.9492H407.17L407.62 38.0004ZM326.395 38.9748L323.695 50.6672H325.695L328.395 38.9748H326.395ZM324.471 51.6416H364.471L364.92 49.6929H324.92L324.471 51.6416ZM364.471 51.6416C386.01 51.6416 399.543 68.655 394.697 89.642H396.697C401.791 67.5787 387.564 49.6929 364.92 49.6929L364.471 51.6416ZM394.697 89.642L391.998 101.334H393.998L396.697 89.642H394.697ZM391.998 101.334C387.153 122.322 365.764 139.335 344.225 139.335L343.775 141.284C366.419 141.284 388.904 123.398 393.998 101.334H391.998ZM344.225 139.335H264.225L263.775 141.284H343.775L344.225 139.335ZM265 140.309L273.998 101.334H271.998L263 140.309H265ZM272.773 102.309H352.773L353.223 100.36H273.223L272.773 102.309ZM353.998 101.334L356.697 89.642H354.697L351.998 101.334H353.998ZM355.922 88.6677H315.922L315.472 90.6164H355.472L355.922 88.6677ZM315.922 88.6677C294.383 88.6677 280.85 71.6543 285.695 50.6672H283.695C278.602 72.7306 292.829 90.6164 315.472 90.6164L315.922 88.6677ZM285.695 50.6672L288.395 38.9748H286.395L283.695 50.6672H285.695ZM288.395 38.9748C293.24 17.9877 314.629 0.97437 336.168 0.97437L336.618 -0.97437C313.974 -0.97437 291.489 16.9115 286.395 38.9748H288.395ZM336.168 0.97437H416.168L416.618 -0.97437H336.618L336.168 0.97437ZM164.168 0.97437H284.168L284.618 -0.97437H164.618L164.168 0.97437ZM156.395 38.9748L165.393 0H163.393L154.395 38.9748H156.395ZM275.62 38.0004H155.62L155.17 39.9492H275.17L275.62 38.0004ZM283.393 0L274.395 38.9748H276.395L285.393 0H283.393ZM152.471 51.6416H248.471L248.92 49.6929H152.92L152.471 51.6416ZM144.697 89.642L153.695 50.6672H151.695L142.697 89.642H144.697ZM239.922 88.6677H143.922L143.472 90.6164H239.472L239.922 88.6677ZM247.695 50.6672L238.697 89.642H240.697L249.695 50.6672H247.695ZM140.773 102.309H260.773L261.223 100.36H141.223L140.773 102.309ZM133 140.309L141.998 101.334H139.998L131 140.309H133ZM252.225 139.335H132.225L131.775 141.284H251.775L252.225 139.335ZM259.998 101.334L251 140.309H253L261.998 101.334H259.998Z" fill="url(#paint2_linear_105_3893)" mask="url(#path-3-inside-2_105_3893)"/>
</g>
<defs>
<filter id="filter0_i_105_3893" x="0" y="0" width="536.393" height="140.31" filterUnits="userSpaceOnUse" color-interpolation-filters="sRGB">
<feFlood flood-opacity="0" result="BackgroundImageFix"/>
<feBlend mode="normal" in="SourceGraphic" in2="BackgroundImageFix" result="shape"/>
<feColorMatrix in="SourceAlpha" type="matrix" values="0 0 0 0 0 0 0 0 0 0 0 0 0 0 0 0 0 0 127 0" result="hardAlpha"/>
<feMorphology radius="0.5" operator="erode" in="SourceAlpha" result="effect1_innerShadow_105_3893"/>
<feOffset/>
<feGaussianBlur stdDeviation="0.75"/>
<feComposite in2="hardAlpha" operator="arithmetic" k2="-1" k3="1"/>
<feColorMatrix type="matrix" values="0 0 0 0 0 0 0 0 0 0 0 0 0 0 0 0 0 0 0.12 0"/>
<feBlend mode="normal" in2="shape" result="effect1_innerShadow_105_3893"/>
</filter>
<filter id="filter1_i_105_3893" x="0" y="0" width="536.393" height="140.31" filterUnits="userSpaceOnUse" color-interpolation-filters="sRGB">
<feFlood flood-opacity="0" result="BackgroundImageFix"/>
<feBlend mode="normal" in="SourceGraphic" in2="BackgroundImageFix" result="shape"/>
<feColorMatrix in="SourceAlpha" type="matrix" values="0 0 0 0 0 0 0 0 0 0 0 0 0 0 0 0 0 0 127 0" result="hardAlpha"/>
<feMorphology radius="0.5" operator="erode" in="SourceAlpha" result="effect1_innerShadow_105_3893"/>
<feOffset/>
<feGaussianBlur stdDeviation="0.75"/>
<feComposite in2="hardAlpha" operator="arithmetic" k2="-1" k3="1"/>
<feColorMatrix type="matrix" values="0 0 0 0 0 0 0 0 0 0 0 0 0 0 0 0 0 0 0.12 0"/>
<feBlend mode="normal" in2="shape" result="effect1_innerShadow_105_3893"/>
</filter>
<linearGradient id="paint0_linear_105_3893" x1="-24.8335" y1="47.9011" x2="190.413" y2="304.767" gradientUnits="userSpaceOnUse">
<stop stop-color="#02FF92"/>
<stop offset="0.25" stop-color="#4ED4FF"/>
<stop offset="0.5" stop-color="#B968FF"/>
<stop offset="0.75" stop-color="#FB4DFF"/>
<stop offset="1" stop-color="#FF4DCD"/>
</linearGradient>
<linearGradient id="paint1_linear_105_3893" x1="268.583" y1="-1.84536" x2="236.27" y2="134.69" gradientUnits="userSpaceOnUse">
<stop stop-color="white"/>
<stop offset="1"/>
</linearGradient>
<linearGradient id="paint2_linear_105_3893" x1="16.1965" y1="70.1546" x2="494.693" y2="180.624" gradientUnits="userSpaceOnUse">
<stop stop-color="#F2FFFA"/>
<stop offset="0.25" stop-color="#E6F5FF"/>
<stop offset="0.5" stop-color="#F5DEFF"/>
<stop offset="1" stop-color="#FFE0F8"/>
</linearGradient>
</defs>
</svg>
